<mxfile host="Electron" agent="Mozilla/5.0 (Windows NT 10.0; Win64; x64) AppleWebKit/537.36 (KHTML, like Gecko) draw.io/24.7.17 Chrome/128.0.6613.36 Electron/32.0.1 Safari/537.36" version="24.7.17">
  <diagram name="第 1 页" id="ubu_kxV5uYJHwL8GhxP3">
    <mxGraphModel dx="1235" dy="740" grid="0" gridSize="10" guides="1" tooltips="1" connect="1" arrows="1" fold="1" page="0" pageScale="1" pageWidth="1169" pageHeight="827" math="0" shadow="0">
      <root>
        <mxCell id="0" />
        <mxCell id="1" parent="0" />
        <mxCell id="p7wA9A_HL-wemsziyGiI-20" value="" style="ellipse;whiteSpace=wrap;html=1;aspect=fixed;" vertex="1" parent="1">
          <mxGeometry x="150" y="119.5" width="347" height="347" as="geometry" />
        </mxCell>
        <mxCell id="p7wA9A_HL-wemsziyGiI-1" value="" style="shape=link;html=1;rounded=0;fillColor=#dae8fc;strokeColor=#6c8ebf;" edge="1" parent="1">
          <mxGeometry relative="1" as="geometry">
            <mxPoint x="280" y="173" as="sourcePoint" />
            <mxPoint x="280" y="243" as="targetPoint" />
          </mxGeometry>
        </mxCell>
        <mxCell id="p7wA9A_HL-wemsziyGiI-3" value="&lt;b&gt;Frontend&lt;/b&gt;" style="text;html=1;align=center;verticalAlign=middle;resizable=0;points=[];autosize=1;strokeColor=#6c8ebf;fillColor=#dae8fc;" vertex="1" parent="1">
          <mxGeometry x="190" y="198" width="80" height="30" as="geometry" />
        </mxCell>
        <mxCell id="p7wA9A_HL-wemsziyGiI-4" value="" style="shape=link;html=1;rounded=0;fillColor=#d5e8d4;strokeColor=#82b366;" edge="1" parent="1">
          <mxGeometry relative="1" as="geometry">
            <mxPoint x="280" y="260" as="sourcePoint" />
            <mxPoint x="280" y="330" as="targetPoint" />
          </mxGeometry>
        </mxCell>
        <mxCell id="p7wA9A_HL-wemsziyGiI-5" value="&lt;b&gt;Backend&lt;/b&gt;" style="text;html=1;align=center;verticalAlign=middle;resizable=0;points=[];autosize=1;strokeColor=#82b366;fillColor=#d5e8d4;" vertex="1" parent="1">
          <mxGeometry x="195" y="278" width="70" height="30" as="geometry" />
        </mxCell>
        <mxCell id="p7wA9A_HL-wemsziyGiI-8" value="" style="shape=link;html=1;rounded=0;fillColor=#ffe6cc;strokeColor=#d79b00;" edge="1" parent="1">
          <mxGeometry relative="1" as="geometry">
            <mxPoint x="280" y="372" as="sourcePoint" />
            <mxPoint x="280" y="408" as="targetPoint" />
          </mxGeometry>
        </mxCell>
        <mxCell id="p7wA9A_HL-wemsziyGiI-9" value="&lt;b&gt;Data Layer&lt;/b&gt;" style="text;html=1;align=center;verticalAlign=middle;resizable=0;points=[];autosize=1;strokeColor=#d79b00;fillColor=#ffe6cc;" vertex="1" parent="1">
          <mxGeometry x="195" y="375" width="80" height="30" as="geometry" />
        </mxCell>
        <mxCell id="p7wA9A_HL-wemsziyGiI-11" value="Vue3 Framework based on TypeScript" style="rounded=0;whiteSpace=wrap;html=1;fillColor=#dae8fc;strokeColor=#6c8ebf;" vertex="1" parent="1">
          <mxGeometry x="300" y="183" width="120" height="60" as="geometry" />
        </mxCell>
        <mxCell id="p7wA9A_HL-wemsziyGiI-14" value="SpringBoot Framework based on Java" style="rounded=0;whiteSpace=wrap;html=1;fillColor=#d5e8d4;strokeColor=#82b366;" vertex="1" parent="1">
          <mxGeometry x="300" y="263" width="120" height="60" as="geometry" />
        </mxCell>
        <mxCell id="p7wA9A_HL-wemsziyGiI-15" value="Relational database MySql and non-relational database redis" style="rounded=0;whiteSpace=wrap;html=1;fillColor=#ffe6cc;strokeColor=#d79b00;" vertex="1" parent="1">
          <mxGeometry x="300" y="360" width="120" height="60" as="geometry" />
        </mxCell>
        <mxCell id="p7wA9A_HL-wemsziyGiI-16" value="" style="endArrow=none;dashed=1;html=1;dashPattern=1 3;strokeWidth=2;rounded=0;" edge="1" parent="1">
          <mxGeometry width="50" height="50" relative="1" as="geometry">
            <mxPoint x="180" y="340" as="sourcePoint" />
            <mxPoint x="480" y="340" as="targetPoint" />
          </mxGeometry>
        </mxCell>
        <mxCell id="p7wA9A_HL-wemsziyGiI-17" value="" style="endArrow=none;html=1;rounded=0;strokeWidth=3;fillColor=#a20025;strokeColor=#6F0000;" edge="1" parent="1">
          <mxGeometry width="50" height="50" relative="1" as="geometry">
            <mxPoint x="180" y="250" as="sourcePoint" />
            <mxPoint x="480" y="250" as="targetPoint" />
          </mxGeometry>
        </mxCell>
        <mxCell id="p7wA9A_HL-wemsziyGiI-21" value="&lt;b&gt;&lt;font color=&quot;#000000&quot; style=&quot;font-size: 16px;&quot;&gt;Efficient&lt;/font&gt;&lt;/b&gt;" style="rounded=0;whiteSpace=wrap;html=1;fillColor=#dae8fc;strokeColor=#6c8ebf;gradientColor=#7ea6e0;" vertex="1" parent="1">
          <mxGeometry x="610" y="168" width="120" height="60" as="geometry" />
        </mxCell>
        <mxCell id="p7wA9A_HL-wemsziyGiI-22" value="&lt;font style=&quot;font-size: 16px;&quot;&gt;&lt;b&gt;Easy to use&lt;/b&gt;&lt;/font&gt;" style="rounded=0;whiteSpace=wrap;html=1;fillColor=#d5e8d4;gradientColor=#97d077;strokeColor=#82b366;" vertex="1" parent="1">
          <mxGeometry x="610" y="360" width="120" height="60" as="geometry" />
        </mxCell>
        <mxCell id="p7wA9A_HL-wemsziyGiI-23" value="Flexible" style="rounded=0;whiteSpace=wrap;html=1;fillColor=#f5f5f5;strokeColor=#666666;fontStyle=1;fontSize=16;gradientColor=#b3b3b3;" vertex="1" parent="1">
          <mxGeometry x="610" y="70" width="120" height="60" as="geometry" />
        </mxCell>
        <mxCell id="p7wA9A_HL-wemsziyGiI-24" value="&lt;font style=&quot;font-size: 16px;&quot;&gt;&lt;b&gt;Stable&lt;/b&gt;&lt;/font&gt;" style="rounded=0;whiteSpace=wrap;html=1;fillColor=#e6d0de;gradientColor=#d5739d;strokeColor=#996185;" vertex="1" parent="1">
          <mxGeometry x="610" y="460" width="120" height="60" as="geometry" />
        </mxCell>
        <mxCell id="p7wA9A_HL-wemsziyGiI-25" value="&lt;b&gt;&lt;font style=&quot;font-size: 16px;&quot;&gt;Community richness&lt;/font&gt;&lt;/b&gt;" style="rounded=0;whiteSpace=wrap;html=1;fillColor=#f8cecc;strokeColor=#b85450;gradientColor=#ea6b66;" vertex="1" parent="1">
          <mxGeometry x="610" y="263" width="120" height="60" as="geometry" />
        </mxCell>
        <mxCell id="p7wA9A_HL-wemsziyGiI-27" value="" style="shape=curlyBracket;whiteSpace=wrap;html=1;rounded=1;labelPosition=left;verticalLabelPosition=middle;align=right;verticalAlign=middle;strokeWidth=3;fillColor=#1ba1e2;fontColor=#ffffff;strokeColor=#006EAF;" vertex="1" parent="1">
          <mxGeometry x="550" y="100" width="20" height="400" as="geometry" />
        </mxCell>
      </root>
    </mxGraphModel>
  </diagram>
</mxfile>
